<svg id="SvgjsSvg1001" width="288" height="288" xmlns="http://www.w3.org/2000/svg" version="1.1" xmlns:xlink="http://www.w3.org/1999/xlink" xmlns:svgjs="http://svgjs.com/svgjs"><defs id="SvgjsDefs1002"></defs><g id="SvgjsG1008"><svg xmlns="http://www.w3.org/2000/svg" version="1.0" viewBox="0 0 709 713" width="288" height="288"><g transform="matrix(.1 0 0 -.1 0 713)" fill="#ffffff" class="color000 svgShape"><path d="M3325 7035 c-19 -9 -68 -14 -132 -15 -57 0 -105 -4 -108 -10 -3 -5-34 -10 -69 -10 -39 0 -69 -5 -82 -15 -10 -8 -40 -15 -66 -15 -26 0 -50 -4
-53 -10 -3 -5 -23 -10 -44 -10 -22 0 -44 -6 -51 -15 -7 -8 -28 -15 -47 -15
-18 0 -45 -7 -58 -16 -13 -9 -29 -13 -35 -9 -6 4 -22 0 -35 -9 -13 -9 -35 -16
-47 -16 -13 0 -32 -7 -42 -15 -11 -8 -30 -15 -42 -15 -13 0 -26 -4 -29 -10 -3
-5 -15 -10 -26 -10 -11 0 -40 -11 -65 -25 -25 -14 -51 -25 -59 -25 -7 0 -28
-8 -47 -17 -18 -9 -40 -19 -48 -23 -14 -6 -69 -34 -100 -51 -8 -5 -38 -20 -67
-35 -29 -14 -57 -32 -64 -40 -6 -8 -19 -14 -29 -14 -10 0 -23 -7 -30 -15 -7
-8 -18 -15 -25 -15 -7 0 -23 -11 -36 -25 -13 -13 -31 -25 -40 -25 -8 0 -26
-11 -39 -25 -13 -14 -30 -25 -38 -25 -8 0 -25 -11 -38 -25 -13 -14 -29 -25
-36 -25 -8 0 -32 -18 -53 -40 -21 -22 -46 -40 -55 -40 -8 -1 -37 -23 -65 -50
-27 -28 -55 -50 -60 -50 -15 0 -385 -374 -385 -388 0 -7 -17 -27 -38 -46 -21
-19 -44 -47 -52 -63 -8 -15 -31 -47 -52 -70 -21 -24 -38 -47 -38 -53 0 -6 -11
-23 -25 -38 -14 -15 -25 -31 -25 -35 0 -5 -11 -22 -25 -39 -14 -16 -25 -35
-25 -42 0 -7 -10 -21 -21 -32 -12 -10 -25 -28 -30 -39 -5 -11 -13 -27 -18 -35
-5 -8 -17 -32 -25 -52 -9 -20 -21 -40 -26 -43 -6 -3 -10 -12 -10 -20 0 -8 -11
-31 -25 -51 -14 -20 -25 -44 -25 -52 0 -9 -9 -25 -20 -37 -23 -25 -38 -85 -21
-85 6 0 15 8 19 18 24 62 367 427 457 487 28 19 66 50 84 69 19 20 40 36 46
36 6 0 29 18 50 40 21 22 46 40 55 40 9 0 27 11 40 25 13 14 29 25 35 25 6 0
22 11 35 25 13 14 31 25 40 25 9 0 27 11 40 25 13 14 31 25 41 25 9 0 19 3 21
8 2 4 46 29 98 55 52 27 102 52 110 56 8 4 25 13 37 19 13 7 29 12 37 12 7 0
19 7 26 15 7 8 21 15 31 15 11 0 19 5 19 10 0 6 9 10 21 10 11 0 34 7 50 15
16 8 43 22 59 31 17 8 34 13 39 10 4 -3 17 1 27 9 10 8 31 15 45 15 15 0 32 7
39 15 7 8 25 15 41 15 15 0 31 5 34 10 3 6 26 10 49 10 27 0 48 6 56 15 8 9
29 15 56 15 23 0 46 5 49 10 3 6 30 10 58 10 29 0 65 7 81 15 18 10 56 15 105
15 42 0 82 5 87 10 7 7 125 9 350 6 404 -6 521 -12 548 -32 11 -8 42 -14 68
-14 26 0 50 -4 53 -10 3 -5 25 -10 49 -10 23 0 51 -7 62 -15 10 -8 36 -15 56
-15 20 0 40 -4 43 -10 3 -5 19 -10 34 -10 15 0 36 -7 47 -15 10 -8 29 -15 42
-15 13 0 36 -7 52 -15 17 -9 30 -13 30 -9 0 3 11 -1 25 -10 13 -9 33 -16 43
-16 11 0 25 -7 32 -15 7 -8 21 -15 31 -15 10 0 21 -4 24 -10 3 -5 16 -10 29
-10 12 0 31 -7 42 -15 10 -8 27 -15 37 -15 9 0 17 -4 17 -10 0 -5 8 -10 19
-10 10 0 24 -7 31 -15 7 -8 20 -15 30 -15 10 0 23 -7 30 -15 7 -8 16 -13 20
-10 5 3 12 0 15 -5 4 -6 17 -15 28 -21 12 -5 45 -23 72 -39 28 -16 59 -34 70
-39 11 -5 29 -18 39 -30 11 -11 25 -21 32 -21 8 0 25 -10 38 -21 14 -12 33
-27 44 -33 26 -15 96 -66 162 -118 57 -45 451 -437 533 -531 26 -29 47 -60 47
-68 0 -8 16 -30 35 -49 19 -19 35 -38 35 -43 0 -4 11 -23 25 -41 14 -18 25
-36 25 -39 0 -9 64 -101 73 -105 4 -2 7 -12 7 -22 0 -10 4 -21 9 -24 5 -4 20
-27 33 -54 13 -26 38 -74 55 -107 62 -121 83 -167 83 -180 0 -7 7 -18 15 -25
8 -7 15 -23 15 -36 0 -12 5 -26 10 -29 6 -3 10 -16 10 -28 0 -12 7 -31 15 -41
8 -11 15 -30 15 -42 0 -13 5 -26 10 -29 6 -3 10 -19 10 -34 0 -16 7 -34 15
-41 9 -7 15 -29 15 -51 0 -21 5 -41 10 -44 6 -3 10 -21 10 -38 1 -18 7 -43 15
-57 8 -14 15 -43 15 -65 0 -22 7 -49 15 -59 9 -12 15 -42 15 -77 0 -32 5 -61
10 -64 6 -3 10 -46 10 -94 0 -56 6 -102 15 -124 12 -29 15 -86 15 -280 0 -195
-3 -252 -15 -280 -9 -23 -15 -68 -15 -121 0 -47 -4 -88 -10 -91 -6 -3 -10 -32
-10 -64 0 -35 -6 -65 -15 -77 -8 -10 -15 -39 -15 -64 0 -25 -7 -54 -15 -64 -8
-11 -15 -37 -15 -57 0 -21 -4 -41 -10 -44 -5 -3 -10 -21 -10 -39 0 -19 -7 -39
-15 -46 -8 -7 -15 -25 -15 -41 0 -15 -4 -31 -10 -34 -5 -3 -10 -19 -10 -34 0
-16 -7 -34 -15 -41 -8 -7 -15 -23 -15 -36 0 -12 -4 -26 -10 -29 -5 -3 -10 -17
-10 -30 0 -13 -5 -27 -10 -30 -11 -7 -50 -88 -50 -105 0 -9 -9 -29 -31 -70 -5
-8 -18 -33 -29 -55 -11 -22 -33 -62 -50 -90 -16 -27 -39 -70 -50 -94 -12 -24
-30 -53 -41 -64 -10 -12 -19 -26 -19 -32 0 -6 -13 -24 -30 -40 -16 -16 -30
-35 -30 -42 0 -8 -10 -24 -21 -36 -12 -12 -29 -34 -39 -49 -9 -16 -33 -46 -53
-68 -21 -21 -37 -45 -37 -52 0 -8 -92 -105 -205 -218 -113 -112 -203 -205
-201 -207 7 -7 113 47 181 92 45 30 66 43 103 61 19 10 36 23 39 31 3 7 13 13
23 13 10 0 24 7 31 17 8 9 37 31 64 49 28 17 61 44 74 58 14 14 29 26 35 26 6
0 40 29 76 65 36 35 71 64 77 65 20 0 222 200 263 260 21 30 63 80 94 110 31
30 56 59 56 65 0 7 12 22 26 36 14 13 34 40 44 59 10 19 27 44 39 54 12 11 21
24 21 31 0 6 11 22 25 35 14 13 25 31 25 41 0 9 6 22 14 28 8 7 22 27 31 46 9
19 20 35 25 35 6 0 10 8 10 18 0 10 11 29 25 42 14 13 25 31 26 39 0 9 9 30
20 46 10 17 21 37 25 45 3 8 9 22 14 30 5 8 17 31 26 50 8 19 20 42 25 50 5 8
12 22 15 30 3 8 10 23 15 32 5 10 9 26 9 36 0 10 7 27 15 38 8 10 15 27 15 37
0 17 3 24 33 85 9 19 17 43 17 55 0 12 7 31 15 41 8 11 15 30 15 42 0 13 5 26
10 29 6 3 10 21 10 39 0 17 5 37 12 44 12 12 26 75 35 154 3 26 11 52 19 59 9
7 14 32 14 70 0 32 4 61 10 64 6 3 10 41 10 83 1 48 6 86 15 102 21 37 21 713
0 750 -9 16 -14 54 -15 102 0 42 -4 80 -10 83 -5 3 -10 32 -10 64 0 40 -5 63
-15 71 -10 8 -15 30 -15 61 0 26 -4 51 -10 54 -5 3 -10 21 -10 38 0 18 -7 41
-15 51 -8 11 -15 37 -15 57 0 21 -4 41 -10 44 -5 3 -10 16 -10 29 0 12 -7 31
-15 42 -8 10 -15 31 -15 45 0 15 -7 32 -15 39 -8 7 -15 23 -15 36 0 12 -4 26
-10 29 -5 3 -10 17 -10 29 0 13 -6 28 -13 34 -7 6 -19 34 -27 62 -8 28 -20 56
-27 62 -7 6 -13 16 -13 23 0 16 -29 73 -41 80 -5 4 -9 14 -9 24 0 10 -7 24
-15 31 -8 7 -13 16 -10 20 3 4 -2 13 -10 20 -8 7 -15 19 -15 27 0 8 -10 29
-23 46 -30 44 -45 68 -56 92 -5 11 -18 29 -30 39 -11 11 -21 27 -21 36 0 9
-11 27 -25 40 -14 13 -25 29 -25 35 0 6 -11 22 -25 35 -14 13 -25 31 -25 40 0
9 -18 34 -40 55 -22 21 -40 44 -40 50 0 5 -29 42 -65 80 -36 39 -65 75 -65 80
0 13 -253 263 -305 301 -22 16 -49 38 -60 50 -21 21 -111 92 -168 131 -18 12
-46 33 -63 47 -18 14 -36 26 -41 26 -5 0 -20 11 -33 25 -13 14 -30 25 -37 25
-8 0 -38 18 -68 40 -30 22 -60 40 -67 41 -7 0 -26 9 -43 19 -82 51 -238 130
-258 130 -8 0 -20 7 -27 15 -7 8 -19 15 -26 15 -14 0 -23 4 -81 34 -17 9 -41
16 -52 16 -12 0 -21 5 -21 10 0 6 -13 10 -29 10 -16 0 -36 7 -45 15 -8 8 -28
15 -44 15 -16 0 -35 7 -42 15 -7 9 -21 13 -34 9 -14 -3 -28 1 -35 10 -8 9 -28
16 -45 16 -17 1 -42 7 -56 15 -14 8 -42 14 -62 15 -20 0 -40 5 -43 10 -3 6
-28 10 -54 10 -26 0 -56 7 -67 15 -12 9 -42 14 -81 15 -34 0 -65 5 -68 10 -3
6 -50 10 -104 10 -65 0 -111 5 -134 15 -50 21 -457 20 -502 0z" fill="#ffffff" class="color000 svgShape"></path><path d="M2690 5985 c-15 -9 -54 -14 -97 -15 -39 0 -75 -4 -78 -10 -3 -5 -30
-10 -59 -10 -35 0 -58 -5 -66 -15 -8 -9 -29 -15 -56 -15 -23 0 -46 -4 -49 -10
-3 -5 -19 -10 -34 -10 -15 0 -36 -7 -47 -15 -10 -8 -31 -15 -47 -15 -15 0 -35
-4 -45 -9 -9 -5 -37 -17 -62 -26 -25 -9 -57 -23 -72 -31 -14 -8 -35 -14 -46
-14 -12 0 -24 -4 -27 -10 -3 -5 -14 -10 -24 -10 -10 0 -24 -7 -31 -15 -7 -8
-21 -15 -31 -15 -11 0 -19 -4 -19 -10 0 -5 -8 -10 -19 -10 -10 0 -24 -7 -31
-15 -7 -8 -20 -15 -29 -16 -9 0 -29 -9 -46 -20 -16 -10 -36 -21 -42 -24 -29
-12 -39 -16 -58 -28 -130 -78 -180 -111 -203 -132 -15 -14 -32 -25 -38 -25 -6
0 -21 -11 -34 -25 -13 -14 -28 -25 -35 -25 -6 0 -42 -29 -80 -65 -39 -36 -74
-65 -80 -65 -14 0 -275 -262 -275 -277 0 -6 -25 -38 -55 -69 -30 -32 -55 -63
-55 -69 0 -6 -16 -26 -35 -45 -19 -19 -35 -41 -35 -50 0 -9 -11 -27 -25 -40
-14 -13 -25 -29 -25 -35 0 -6 -11 -22 -25 -35 -14 -13 -25 -31 -25 -41 0 -9
-7 -22 -15 -29 -8 -7 -15 -17 -15 -22 0 -5 -11 -24 -24 -41 -13 -18 -32 -51
-42 -74 -10 -24 -21 -43 -26 -43 -4 0 -8 -8 -8 -19 0 -10 -7 -24 -15 -31 -8
-7 -15 -19 -15 -26 0 -8 -4 -22 -9 -32 -10 -20 -33 -73 -51 -117 -6 -16 -18
-43 -26 -58 -8 -16 -14 -37 -14 -47 0 -10 -5 -22 -10 -25 -6 -3 -10 -19 -10
-34 0 -16 -7 -34 -15 -41 -8 -7 -15 -27 -15 -44 0 -18 -5 -37 -11 -43 -6 -6
-13 -30 -15 -54 -2 -24 -8 -47 -14 -53 -5 -5 -10 -31 -10 -57 0 -29 -6 -51
-15 -59 -10 -9 -15 -32 -15 -76 0 -34 -5 -66 -10 -69 -6 -3 -10 -49 -10 -101
0 -60 -6 -113 -16 -144 -20 -62 -17 -371 3 -392 9 -8 13 -47 13 -119 0 -61 4
-111 10 -114 5 -3 10 -32 10 -63 0 -31 7 -70 15 -86 8 -15 15 -45 15 -65 0
-20 5 -42 12 -49 7 -7 13 -31 14 -54 1 -23 7 -44 13 -46 6 -2 11 -18 11 -37 0
-18 7 -38 15 -45 8 -7 15 -25 15 -41 0 -15 5 -31 10 -34 6 -3 10 -15 10 -27 0
-11 6 -32 14 -46 7 -15 19 -40 26 -57 20 -50 42 -99 51 -117 5 -10 9 -24 9
-32 0 -7 7 -19 15 -26 8 -7 15 -21 15 -31 0 -11 4 -19 8 -19 8 0 42 -69 42
-87 0 -5 11 -20 25 -33 14 -13 25 -29 25 -36 0 -6 7 -17 15 -24 8 -7 15 -20
15 -29 0 -10 11 -28 25 -41 14 -13 25 -29 25 -35 0 -6 11 -22 25 -35 14 -13
25 -31 25 -40 0 -9 10 -25 21 -36 12 -10 32 -35 44 -54 13 -19 43 -57 69 -85
25 -27 46 -54 46 -60 0 -14 283 -295 298 -295 6 0 37 -25 68 -55 32 -30 62
-55 67 -55 6 0 29 -18 53 -40 24 -22 50 -40 57 -40 7 0 24 -11 37 -25 13 -14
28 -25 33 -25 6 0 18 -6 26 -14 9 -8 39 -26 66 -40 28 -15 58 -31 67 -37 10
-5 26 -13 35 -18 10 -6 56 -29 103 -52 47 -23 92 -46 100 -50 8 -5 22 -12 30
-15 8 -3 38 -17 65 -30 28 -13 60 -24 73 -24 12 0 22 -4 22 -10 0 -5 8 -10 18
-10 9 0 30 -7 46 -15 15 -8 40 -15 55 -15 14 0 35 -7 45 -15 11 -8 32 -15 47
-15 15 0 31 -4 34 -10 3 -5 23 -10 43 -10 20 -1 48 -7 62 -15 14 -8 46 -14 72
-15 26 0 50 -4 53 -10 3 -5 37 -10 74 -10 42 0 80 -6 97 -15 43 -22 665 -22
708 0 17 9 56 15 102 15 40 0 76 5 79 10 3 6 25 10 48 10 23 1 53 7 67 15 14
8 42 14 62 15 20 0 40 5 43 10 3 6 21 10 39 10 19 0 39 7 46 15 7 8 25 15 40
15 24 0 63 14 112 41 10 5 28 9 42 9 13 0 29 7 36 15 7 8 21 15 31 15 10 0 21
5 24 10 3 6 15 10 26 10 16 0 88 32 139 61 8 5 22 12 30 15 8 3 22 10 30 15 8
5 24 13 35 19 11 5 38 21 60 34 22 14 54 33 72 42 18 8 37 22 44 30 6 8 16 14
21 14 5 0 24 11 42 25 18 14 37 25 43 25 5 0 22 13 38 30 16 16 34 30 40 30 6
0 24 14 41 31 16 17 54 48 84 69 66 46 351 332 373 375 8 17 31 46 51 64 20
19 36 40 36 45 0 6 16 28 35 48 19 20 35 43 35 51 0 7 11 24 25 37 14 13 25
29 25 35 0 7 11 25 25 41 14 16 25 34 25 40 0 6 7 17 15 24 8 7 15 21 15 32 0
10 7 21 15 24 8 4 15 12 15 20 0 8 11 32 25 54 14 22 25 46 25 54 0 8 4 18 10
21 6 3 10 14 10 24 0 10 7 24 15 31 8 7 15 19 15 27 0 8 7 21 15 30 8 8 13 18
10 23 -3 4 2 13 10 20 8 7 15 25 15 40 0 15 7 33 15 40 8 7 15 21 15 31 0 11
4 27 9 37 16 32 33 87 38 120 3 18 9 35 14 38 5 3 9 20 9 37 1 18 7 43 15 57
8 14 14 44 15 67 0 23 5 45 10 48 6 3 10 30 10 59 0 30 6 60 15 72 10 13 14
45 15 105 0 53 5 90 12 97 9 9 12 80 12 267 0 187 -3 258 -12 267 -8 8 -12 44
-12 98 0 60 -4 92 -15 106 -8 11 -15 41 -15 71 0 28 -4 55 -10 58 -5 3 -10 28
-10 54 0 26 -7 56 -15 67 -8 10 -15 33 -15 51 0 17 -4 35 -10 38 -5 3 -10 19
-10 34 0 15 -7 36 -15 47 -8 10 -15 29 -15 41 0 12 -4 25 -10 28 -5 3 -10 19
-10 34 0 16 -7 34 -15 41 -8 7 -15 22 -15 34 0 11 -7 30 -15 40 -8 11 -15 28
-15 38 0 10 -4 18 -10 18 -5 0 -10 8 -10 19 0 10 -7 24 -15 31 -8 7 -15 19
-15 26 0 8 -4 22 -9 32 -5 9 -12 24 -15 32 -4 8 -15 29 -25 45 -11 17 -20 37
-20 46 -1 9 -8 19 -16 23 -8 3 -15 13 -15 21 0 9 -11 31 -25 49 -14 18 -25 38
-25 44 0 7 -4 12 -10 12 -5 0 -12 11 -16 24 -3 13 -17 34 -30 47 -13 12 -24
28 -24 34 0 6 -16 30 -35 52 -19 23 -35 45 -35 50 0 5 -14 22 -31 39 -18 16
-46 52 -64 79 -37 56 -346 365 -365 365 -7 0 -34 19 -60 43 -70 63 -141 117
-155 117 -6 0 -22 11 -35 25 -13 14 -29 25 -36 25 -7 0 -25 11 -40 25 -15 14
-32 25 -39 25 -7 0 -18 7 -25 15 -7 8 -19 15 -27 15 -7 0 -19 5 -26 10 -29 25
-89 60 -101 60 -8 0 -19 7 -26 15 -7 8 -21 15 -31 15 -10 0 -21 5 -24 10 -3 6
-17 10 -29 10 -13 0 -29 7 -36 15 -7 8 -19 15 -26 15 -14 0 -22 3 -82 33 -19
9 -42 17 -52 17 -9 0 -23 7 -31 16 -7 8 -21 13 -30 11 -10 -3 -26 1 -36 9 -10
7 -29 14 -43 14 -14 0 -34 7 -44 15 -11 8 -34 15 -52 15 -18 0 -36 5 -39 10
-3 6 -26 10 -49 10 -27 0 -48 6 -56 15 -8 10 -31 15 -66 15 -29 0 -56 5 -59
10 -3 6 -39 10 -78 10 -43 1 -82 6 -97 15 -20 12 -85 14 -340 14 -255 0 -320
-2 -340 -14z m580 -430 c16 -9 54 -14 102 -15 42 0 80 -4 83 -10 3 -5 30 -10
59 -10 30 0 60 -6 72 -15 10 -8 38 -15 60 -15 25 0 47 -6 55 -16 7 -8 21 -13
30 -11 10 3 26 -1 36 -9 10 -7 29 -14 43 -14 14 0 34 -7 44 -15 11 -8 28 -15
38 -15 18 0 26 -3 85 -34 17 -9 38 -16 46 -16 17 0 75 -28 82 -41 4 -5 14 -9
24 -9 10 0 24 -7 31 -15 7 -8 16 -13 20 -10 5 3 12 0 15 -5 4 -6 17 -15 28
-20 12 -5 45 -23 72 -40 28 -16 59 -34 70 -39 12 -5 27 -16 34 -25 7 -8 26
-22 42 -30 34 -17 84 -58 222 -182 100 -90 308 -306 316 -328 2 -6 20 -29 40
-52 20 -22 45 -56 56 -74 40 -69 57 -95 65 -100 4 -3 17 -25 29 -50 12 -25 35
-67 52 -95 16 -27 32 -57 35 -65 3 -8 9 -24 14 -35 5 -11 11 -27 14 -35 3 -8
10 -22 15 -30 5 -8 14 -28 21 -45 6 -16 18 -43 26 -58 8 -16 14 -38 14 -50 0
-12 7 -31 15 -41 8 -11 15 -30 15 -42 0 -13 5 -26 10 -29 6 -3 10 -23 10 -44
0 -22 6 -44 15 -51 9 -8 15 -29 15 -56 0 -23 5 -46 10 -49 6 -3 10 -35 10 -69
0 -43 5 -67 14 -75 34 -28 35 -713 1 -751 -7 -8 -16 -42 -19 -75 -12 -129 -18
-165 -32 -176 -8 -6 -14 -29 -14 -50 0 -21 -4 -41 -10 -44 -5 -3 -10 -18 -10
-32 0 -13 -6 -37 -14 -51 -8 -15 -22 -47 -31 -72 -10 -25 -21 -54 -25 -65 -5
-11 -11 -27 -14 -35 -3 -8 -10 -22 -15 -30 -8 -14 -22 -46 -35 -80 -3 -8 -19
-37 -35 -65 -17 -27 -40 -70 -52 -94 -11 -25 -27 -51 -35 -58 -8 -8 -14 -18
-14 -22 0 -5 -16 -28 -35 -52 -19 -24 -35 -49 -35 -55 0 -5 -16 -25 -35 -44
-19 -19 -35 -40 -35 -47 0 -15 -416 -433 -431 -433 -6 0 -31 -18 -56 -40 -25
-22 -51 -40 -58 -40 -6 0 -20 -10 -31 -21 -10 -12 -28 -25 -39 -30 -24 -11
-48 -26 -92 -56 -17 -13 -38 -23 -46 -23 -8 0 -20 -7 -27 -15 -7 -8 -16 -13
-20 -10 -4 3 -13 -2 -20 -10 -7 -8 -20 -15 -30 -15 -10 0 -23 -7 -30 -15 -7
-8 -21 -15 -31 -15 -11 0 -19 -4 -19 -10 0 -5 -10 -10 -22 -10 -13 0 -32 -7
-42 -15 -11 -8 -28 -15 -38 -15 -10 0 -18 -4 -18 -10 0 -5 -12 -10 -27 -10
-16 0 -37 -7 -47 -15 -11 -8 -30 -15 -42 -15 -13 0 -26 -5 -29 -10 -3 -6 -19
-10 -34 -10 -15 0 -36 -7 -47 -15 -10 -8 -38 -15 -60 -15 -23 0 -47 -6 -53
-14 -7 -8 -39 -17 -74 -20 -34 -4 -100 -10 -147 -14 -47 -5 -98 -14 -113 -20
-43 -18 -434 -16 -467 3 -16 9 -54 14 -102 15 -42 0 -80 5 -83 10 -3 6 -27 10
-53 10 -26 0 -60 7 -76 15 -15 8 -45 15 -66 15 -21 0 -43 7 -50 15 -7 8 -27
15 -46 15 -18 0 -36 5 -39 10 -3 6 -19 10 -34 10 -16 0 -34 7 -41 15 -7 8 -25
15 -41 15 -16 0 -29 5 -29 10 0 6 -7 10 -16 10 -9 0 -30 7 -47 16 -58 30 -67
34 -81 34 -7 0 -19 7 -26 15 -7 8 -20 15 -30 15 -10 0 -23 7 -30 15 -7 8 -21
15 -31 15 -11 0 -19 4 -19 9 0 5 -16 16 -35 25 -19 9 -37 21 -40 26 -3 6 -13
10 -21 10 -15 0 -126 77 -132 92 -2 4 -11 8 -21 8 -9 0 -35 18 -56 40 -21 22
-45 40 -53 40 -16 0 -392 373 -392 389 0 6 -15 28 -34 48 -18 21 -40 52 -49
68 -8 17 -27 41 -41 54 -14 14 -26 28 -26 33 0 4 -15 31 -33 60 -19 29 -37 60
-40 68 -4 8 -11 22 -16 30 -5 8 -12 22 -15 30 -4 8 -15 29 -25 45 -11 17 -20
37 -20 46 -1 9 -8 22 -16 29 -8 7 -15 21 -15 31 0 11 -4 19 -10 19 -5 0 -10
13 -10 29 0 16 -7 34 -15 41 -8 7 -15 21 -15 31 0 10 -4 21 -10 24 -6 3 -10
19 -10 34 0 16 -7 34 -15 41 -8 7 -15 28 -15 46 0 19 -4 34 -10 34 -5 0 -10
17 -10 38 0 21 -7 47 -15 58 -8 10 -15 37 -15 60 0 22 -5 45 -11 51 -6 6 -14
44 -17 83 -2 39 -9 73 -13 76 -13 8 -11 661 1 669 6 3 10 35 10 69 0 44 5 67
15 76 10 8 15 30 15 65 0 33 5 57 14 64 8 7 17 30 20 51 3 22 9 58 12 80 3 21
12 44 20 51 8 6 14 24 14 40 0 15 5 31 10 34 6 3 10 14 10 24 0 10 7 24 15 31
8 7 15 23 15 36 0 12 5 26 10 29 6 3 10 14 10 24 0 10 7 24 15 31 8 7 15 20
15 30 0 10 7 23 15 30 8 7 13 16 10 20 -3 4 2 13 10 20 8 7 15 20 15 30 0 10
7 23 15 30 8 7 15 17 15 22 0 6 11 23 25 40 14 16 25 35 25 42 0 7 11 23 25
36 14 13 25 29 25 36 0 7 11 25 25 40 14 15 25 32 25 38 0 7 18 30 40 51 22
21 40 45 40 53 0 19 344 362 362 362 8 0 25 12 39 26 13 15 42 38 63 51 22 14
51 36 65 49 14 13 30 24 34 24 5 0 23 11 41 25 18 14 38 25 43 25 6 0 16 7 23
15 7 8 16 13 20 10 5 -3 11 -1 14 4 3 5 24 18 45 29 22 12 48 25 58 30 64 34
127 62 138 62 7 0 18 7 25 15 7 8 23 15 36 15 12 0 26 5 29 10 3 6 17 10 29
10 13 0 29 7 36 15 7 8 23 15 36 15 14 0 32 4 42 9 27 15 118 41 142 41 12 0
31 5 43 12 24 13 97 25 229 36 49 5 93 13 100 20 19 19 435 16 468 -3z" fill="#ffffff" class="color000 svgShape"></path><path d="M2806 5345 c-17 -9 -56 -15 -102 -15 -40 0 -76 -4 -79 -10 -3 -5 -28
-10 -54 -10 -31 0 -53 -5 -61 -15 -8 -9 -29 -15 -56 -15 -23 0 -46 -4 -49 -10
-3 -5 -19 -10 -34 -10 -15 0 -36 -7 -47 -15 -10 -8 -31 -15 -46 -15 -15 0 -30
-4 -33 -10 -3 -5 -14 -10 -24 -10 -10 0 -24 -7 -31 -15 -7 -8 -25 -15 -40 -15
-15 0 -33 -7 -40 -15 -7 -8 -18 -15 -25 -15 -16 0 -73 -29 -80 -41 -4 -5 -13
-9 -20 -9 -8 0 -39 -16 -69 -35 -30 -19 -58 -35 -61 -35 -4 0 -21 -11 -39 -25
-18 -14 -37 -25 -43 -25 -5 0 -22 -13 -38 -30 -16 -16 -33 -30 -38 -30 -5 0
-34 -22 -65 -50 -31 -27 -61 -50 -66 -50 -17 0 -276 -263 -276 -280 0 -9 -23
-38 -50 -65 -27 -27 -50 -53 -50 -58 0 -4 -11 -23 -25 -41 -14 -18 -25 -37
-25 -43 0 -5 -11 -20 -24 -32 -13 -13 -27 -34 -30 -47 -4 -13 -11 -24 -16 -24
-6 0 -10 -8 -10 -19 0 -10 -7 -24 -15 -31 -8 -7 -15 -21 -15 -31 0 -11 -4 -19
-10 -19 -5 0 -10 -8 -10 -19 0 -10 -7 -24 -15 -31 -8 -7 -15 -21 -15 -31 0
-11 -4 -19 -10 -19 -5 0 -10 -8 -10 -19 0 -10 -7 -24 -15 -31 -8 -7 -15 -21
-15 -31 0 -10 -5 -21 -10 -24 -6 -3 -10 -19 -10 -34 0 -16 -7 -34 -15 -41 -8
-7 -15 -22 -15 -35 0 -12 -7 -36 -16 -54 -9 -18 -14 -41 -11 -51 3 -11 -1 -27
-9 -37 -7 -10 -14 -35 -14 -56 0 -21 -7 -45 -15 -53 -10 -11 -15 -36 -15 -79
0 -35 -4 -67 -10 -70 -14 -8 -14 -642 0 -650 5 -3 10 -32 10 -64 0 -35 6 -65
15 -77 8 -10 15 -38 15 -61 0 -23 4 -45 10 -48 6 -3 10 -18 10 -33 0 -15 7
-40 15 -56 8 -15 15 -35 15 -43 0 -8 6 -27 14 -41 8 -15 20 -47 27 -72 7 -25
19 -52 26 -61 7 -8 13 -23 13 -32 0 -9 5 -17 10 -17 6 0 10 -8 10 -19 0 -10 7
-24 15 -31 8 -7 15 -21 15 -31 0 -11 5 -19 10 -19 6 0 10 -8 10 -19 0 -10 7
-24 15 -31 8 -7 15 -20 15 -30 0 -10 7 -23 15 -30 8 -7 15 -18 15 -24 0 -7 11
-23 25 -36 14 -13 25 -31 25 -40 0 -9 11 -27 25 -40 14 -13 25 -28 25 -33 0
-5 23 -34 50 -64 28 -30 50 -60 50 -67 0 -17 269 -280 305 -299 17 -8 43 -29
59 -46 17 -17 35 -31 41 -31 6 0 24 -13 40 -30 16 -16 33 -30 38 -30 6 0 25
-11 43 -25 18 -14 36 -25 40 -25 4 0 21 -10 38 -23 17 -12 45 -28 61 -36 17
-7 37 -17 45 -22 17 -10 68 -34 120 -57 19 -8 43 -19 54 -24 10 -6 30 -12 45
-14 14 -3 30 -9 35 -15 6 -5 20 -9 32 -9 12 0 27 -7 34 -15 7 -8 27 -15 46
-15 18 0 36 -4 39 -10 3 -5 21 -10 38 -10 18 0 41 -7 51 -15 12 -9 42 -15 73
-15 29 0 53 -4 53 -10 0 -6 31 -10 74 -10 46 0 84 -6 102 -15 42 -22 431 -22
460 0 13 10 45 14 102 15 48 0 82 4 82 10 0 6 24 10 54 10 35 0 58 5 66 15 8
9 29 15 56 15 23 0 46 5 49 10 3 6 19 10 34 10 16 0 34 7 41 15 7 8 24 15 39
15 15 0 32 5 37 10 6 6 21 13 34 15 13 2 28 9 34 15 5 5 20 10 32 10 12 0 27
7 34 15 7 8 20 15 29 16 9 0 30 9 46 20 17 10 37 22 45 25 55 23 95 45 147 81
17 13 36 23 41 23 5 0 21 11 36 25 15 14 31 25 37 25 5 0 28 17 52 38 23 21
54 44 69 51 36 18 338 324 338 343 0 8 18 32 40 53 22 21 40 44 40 50 0 5 11
22 25 37 14 15 25 30 25 34 0 4 11 22 25 40 14 18 25 40 25 49 0 8 6 18 14 21
8 3 22 20 31 37 8 18 19 39 24 47 24 42 61 127 61 141 0 9 7 22 15 29 8 7 15
21 15 31 0 10 5 21 10 24 6 3 10 19 10 34 0 16 7 34 15 41 8 7 15 25 15 41 0
15 5 31 10 34 6 3 10 19 10 34 0 15 7 36 15 47 8 10 15 36 15 56 0 20 5 40 10
43 6 3 10 30 10 58 0 29 7 65 15 81 10 19 15 58 15 120 0 51 5 97 11 103 18
18 -7 472 -28 510 -7 12 -13 42 -13 67 0 25 -4 48 -10 51 -5 3 -10 25 -10 48
0 23 -7 51 -15 61 -8 11 -15 32 -15 47 0 15 -4 31 -10 34 -5 3 -10 19 -10 34
0 16 -7 34 -15 41 -8 7 -15 25 -15 41 0 15 -4 31 -10 34 -5 3 -10 14 -10 24 0
10 -7 24 -15 31 -8 7 -15 20 -15 29 0 20 -64 148 -85 172 -8 8 -15 23 -15 31
0 9 -7 18 -15 22 -8 3 -15 12 -15 20 0 15 -31 67 -73 120 -12 16 -25 36 -28
45 -4 9 -23 32 -43 50 -20 19 -36 41 -36 49 0 17 -308 332 -325 332 -6 0 -37
23 -70 50 -33 28 -64 50 -71 50 -7 0 -14 6 -17 13 -3 8 -20 21 -39 31 -37 18
-59 31 -103 61 -43 29 -75 45 -90 45 -7 0 -18 7 -25 15 -7 8 -21 15 -31 15
-11 0 -19 5 -19 10 0 6 -8 10 -19 10 -10 0 -24 7 -31 15 -7 8 -21 15 -30 15
-10 0 -33 8 -52 17 -62 31 -68 33 -92 33 -13 0 -29 7 -36 15 -7 8 -25 15 -41
15 -15 0 -31 5 -34 10 -3 6 -26 10 -49 10 -27 0 -48 6 -56 15 -8 10 -31 15
-66 15 -29 0 -56 5 -59 10 -3 6 -39 10 -79 10 -46 0 -85 6 -102 15 -23 12 -70
15 -224 15 -154 0 -201 -3 -224 -15z m428 -1044 c6 -4 34 -9 61 -10 44 -2 71
-10 137 -42 10 -5 24 -9 31 -9 7 0 24 -11 37 -25 13 -14 29 -25 35 -25 12 0
79 -67 89 -90 3 -8 15 -28 25 -45 11 -16 20 -37 20 -46 1 -9 8 -22 16 -29 22
-18 22 -287 0 -316 -8 -10 -15 -29 -15 -40 0 -23 -40 -100 -77 -150 -13 -17
-23 -34 -23 -37 0 -13 -120 -127 -133 -127 -8 0 -24 -11 -37 -25 -13 -14 -29
-25 -36 -25 -40 0 -39 -74 2 -113 13 -12 24 -26 24 -31 0 -5 11 -24 25 -42 14
-18 25 -37 25 -42 0 -5 11 -21 25 -36 14 -15 25 -33 25 -40 0 -7 11 -23 25
-36 14 -13 25 -31 25 -40 0 -9 11 -27 25 -40 14 -13 25 -29 25 -35 0 -6 14
-24 30 -40 17 -16 30 -34 30 -40 0 -6 16 -30 35 -52 19 -23 35 -45 35 -50 0
-4 11 -20 24 -34 13 -14 35 -43 49 -65 13 -21 39 -52 56 -68 17 -17 31 -35 31
-42 0 -15 156 -174 171 -174 6 0 25 -11 43 -25 18 -14 42 -25 53 -25 11 0 26
-6 32 -14 10 -12 73 -24 141 -26 34 -1 121 17 132 28 7 7 18 12 25 12 7 0 31
11 54 25 22 14 44 23 49 20 18 -11 10 -45 -12 -54 -13 -5 -32 -18 -42 -30 -11
-11 -26 -21 -35 -21 -9 0 -36 -11 -60 -25 -25 -15 -59 -25 -81 -25 -22 0 -42
-4 -45 -10 -8 -14 -355 -14 -355 0 0 6 -6 10 -14 10 -42 0 -138 66 -217 149
-121 127 -179 197 -179 213 0 8 -9 23 -21 34 -11 10 -34 39 -51 64 -17 25 -37
49 -44 53 -8 4 -14 16 -14 26 0 10 -11 28 -25 41 -14 13 -25 29 -25 35 0 7
-11 24 -25 39 -14 15 -25 31 -25 36 0 5 -11 21 -24 37 -13 15 -26 38 -30 49
-4 12 -15 29 -26 39 -11 10 -20 23 -20 30 0 6 -13 24 -30 40 -16 16 -30 36
-30 45 0 9 -11 27 -25 40 -14 13 -25 29 -25 35 0 6 -13 24 -28 38 -25 24 -32
26 -56 17 -15 -5 -87 -10 -160 -10 -89 0 -136 -4 -144 -12 -9 -9 -12 -128 -11
-478 0 -424 2 -468 18 -495 12 -21 27 -31 47 -33 16 -2 36 -6 44 -9 8 -3 19
-7 24 -7 5 -1 11 -6 13 -12 3 -8 -77 -12 -287 -13 -246 -2 -290 0 -290 12 0
15 28 26 70 27 41 1 67 31 75 86 12 79 17 1926 5 1938 -5 5 -10 27 -10 47 0
31 -6 43 -36 67 -20 17 -52 33 -70 37 -33 6 -45 20 -24 27 22 7 944 -3 954
-11z" fill="#ffffff" class="color000 svgShape"></path><path d="M2712 4218 c-9 -9 -12 -135 -12 -504 0 -439 2 -493 16 -498 9 -3 97
-6 197 -6 139 1 188 4 207 15 14 8 34 14 46 15 28 0 95 34 118 59 11 12 24 21
31 21 9 0 66 68 86 104 29 51 39 78 39 104 0 17 5 34 10 37 6 3 10 52 10 110
0 58 -4 107 -10 110 -5 3 -10 21 -10 39 0 19 -7 39 -15 46 -8 7 -15 23 -15 35
0 25 -42 106 -65 125 -8 7 -15 19 -15 26 0 8 -18 32 -40 54 -22 22 -46 40 -54
40 -7 0 -19 7 -26 15 -7 8 -20 15 -30 15 -10 0 -23 7 -30 15 -7 8 -27 15 -46
15 -18 0 -36 5 -39 10 -9 15 -338 13 -353 -2z" fill="#ffffff" class="color000 svgShape"></path></g></svg></g></svg>